<svg xmlns="http://www.w3.org/2000/svg" width="15.97" height="16" viewBox="0 0 15.97 16">
  <metadata><?xpacket begin="﻿" id="W5M0MpCehiHzreSzNTczkc9d"?>
<x:xmpmeta xmlns:x="adobe:ns:meta/" x:xmptk="Adobe XMP Core 5.6-c138 79.159824, 2016/09/14-01:09:01        ">
   <rdf:RDF xmlns:rdf="http://www.w3.org/1999/02/22-rdf-syntax-ns#">
      <rdf:Description rdf:about=""/>
   </rdf:RDF>
</x:xmpmeta>
                                                                                                    
                                                                                                    
                                                                                                    
                                                                                                    
                                                                                                    
                                                                                                    
                                                                                                    
                                                                                                    
                                                                                                    
                                                                                                    
                                                                                                    
                                                                                                    
                                                                                                    
                                                                                                    
                                                                                                    
                                                                                                    
                                                                                                    
                                                                                                    
                                                                                                    
                                                                                                    
                           
<?xpacket end="w"?></metadata>
<defs>
    <style>
      .cls-1 {
        fill: #7e7f84;
        fill-rule: evenodd;
      }
    </style>
  </defs>
  <path id="Basket_loaded" data-name="Basket loaded" class="cls-1" d="M1082.09,46.382h-6.77a0.5,0.5,0,0,1-.48-0.374l-2.78-10.48c-0.14-.5-0.34-0.5-0.41-0.5h-2.15a0.513,0.513,0,0,1,0-1.025h2.15a1.43,1.43,0,0,1,1.37,1.247l0.81,2.859h10.65a0.48,0.48,0,0,1,.4.218,0.521,0.521,0,0,1,.07.468l-2.39,7.251A0.5,0.5,0,0,1,1082.09,46.382Zm-6.4-1.025h6.05l2.03-6.226h-9.66Zm5.06,2.063a1.291,1.291,0,1,1-1.25,1.29A1.271,1.271,0,0,1,1080.75,47.42Zm-4.52,0a1.291,1.291,0,1,1-1.25,1.29A1.273,1.273,0,0,1,1076.23,47.42Zm-0.25-8.772,3.01-2.631,3.39,2.978,0.71-.73-3.39-2.978a0.985,0.985,0,0,0-1.42,0l-3.78,3.365Z" transform="translate(-1069 -34)"/>
</svg>
