<svg xmlns="http://www.w3.org/2000/svg" width="15.875" height="11" viewBox="0 0 15.875 11">
  <metadata><?xpacket begin="﻿" id="W5M0MpCehiHzreSzNTczkc9d"?>
<x:xmpmeta xmlns:x="adobe:ns:meta/" x:xmptk="Adobe XMP Core 5.6-c138 79.159824, 2016/09/14-01:09:01        ">
   <rdf:RDF xmlns:rdf="http://www.w3.org/1999/02/22-rdf-syntax-ns#">
      <rdf:Description rdf:about=""/>
   </rdf:RDF>
</x:xmpmeta>
                                                                                                    
                                                                                                    
                                                                                                    
                                                                                                    
                                                                                                    
                                                                                                    
                                                                                                    
                                                                                                    
                                                                                                    
                                                                                                    
                                                                                                    
                                                                                                    
                                                                                                    
                                                                                                    
                                                                                                    
                                                                                                    
                                                                                                    
                                                                                                    
                                                                                                    
                                                                                                    
                           
<?xpacket end="w"?></metadata>
<defs>
    <style>
      .cls-1 {
        fill: #7e7f84;
        fill-rule: evenodd;
      }
    </style>
  </defs>
  <path id="Envelope" class="cls-1" d="M871.7,37c0.274,0,.248-0.026.248,0.25v8c0,0.276.026,0.75-.248,0.75H858.8a1.031,1.031,0,0,1-.744-0.75v-8c0-.276.471-0.25,0.744-0.25h12.658m0.248-1H858.8a1.537,1.537,0,0,0-1.737,1.25v8A1.955,1.955,0,0,0,858.8,47H871.7a1.545,1.545,0,0,0,1.241-1.75v-8A1.105,1.105,0,0,0,871.7,36h0ZM865,43.547a0.491,0.491,0,0,1-.325-0.122l-7.446-6a0.5,0.5,0,0,1-.05-0.705,0.5,0.5,0,0,1,.7-0.051L865,42.385l7.12-5.716a0.5,0.5,0,0,1,.7.051,0.5,0.5,0,0,1-.05.705l-7.446,6A0.491,0.491,0,0,1,865,43.547Z" transform="translate(-857.063 -36)"/>
</svg>
