<svg xmlns="http://www.w3.org/2000/svg" width="17.969" height="16" viewBox="0 0 17.969 16">
  <metadata><?xpacket begin="﻿" id="W5M0MpCehiHzreSzNTczkc9d"?>
<x:xmpmeta xmlns:x="adobe:ns:meta/" x:xmptk="Adobe XMP Core 5.6-c138 79.159824, 2016/09/14-01:09:01        ">
   <rdf:RDF xmlns:rdf="http://www.w3.org/1999/02/22-rdf-syntax-ns#">
      <rdf:Description rdf:about=""/>
   </rdf:RDF>
</x:xmpmeta>
                                                                                                    
                                                                                                    
                                                                                                    
                                                                                                    
                                                                                                    
                                                                                                    
                                                                                                    
                                                                                                    
                                                                                                    
                                                                                                    
                                                                                                    
                                                                                                    
                                                                                                    
                                                                                                    
                                                                                                    
                                                                                                    
                                                                                                    
                                                                                                    
                                                                                                    
                                                                                                    
                           
<?xpacket end="w"?></metadata>
<defs>
    <style>
      .cls-1 {
        fill: #7e7f84;
        fill-rule: evenodd;
      }
    </style>
  </defs>
  <path id="Heart" class="cls-1" d="M309.558,2206.11c0.55,0,1.543.26,3.155,1.83l0.8,0.78,0.787-.79a5.371,5.371,0,0,1,3.108-1.82,3.661,3.661,0,0,1,2.75,1.18,4.027,4.027,0,0,1-.007,5.76c-0.064.06-3.451,3.67-6.289,6.7a0.553,0.553,0,0,1-.367.14,0.547,0.547,0,0,1-.365-0.14c-0.691-.76-5.7-6.26-6.286-6.84a4.022,4.022,0,0,1,0-5.75,3.631,3.631,0,0,1,2.714-1.05m0-1.1a4.757,4.757,0,0,0-3.507,1.36,5.123,5.123,0,0,0,0,7.32c0.586,0.58,6.27,6.83,6.27,6.83a1.672,1.672,0,0,0,2.345,0l6.283-6.7a5.123,5.123,0,0,0,0-7.32,4.831,4.831,0,0,0-3.542-1.5c-1.325,0-2.8,1.04-3.907,2.15-1.139-1.11-2.571-2.14-3.942-2.14h0Z" transform="translate(-304.531 -2205)"/>
</svg>
