<svg xmlns="http://www.w3.org/2000/svg" width="16" height="16" viewBox="0 0 16 16">
  <metadata><?xpacket begin="﻿" id="W5M0MpCehiHzreSzNTczkc9d"?>
<x:xmpmeta xmlns:x="adobe:ns:meta/" x:xmptk="Adobe XMP Core 5.6-c138 79.159824, 2016/09/14-01:09:01        ">
   <rdf:RDF xmlns:rdf="http://www.w3.org/1999/02/22-rdf-syntax-ns#">
      <rdf:Description rdf:about=""/>
   </rdf:RDF>
</x:xmpmeta>
                                                                                                    
                                                                                                    
                                                                                                    
                                                                                                    
                                                                                                    
                                                                                                    
                                                                                                    
                                                                                                    
                                                                                                    
                                                                                                    
                                                                                                    
                                                                                                    
                                                                                                    
                                                                                                    
                                                                                                    
                                                                                                    
                                                                                                    
                                                                                                    
                                                                                                    
                                                                                                    
                           
<?xpacket end="w"?></metadata>
<defs>
    <style>
      .cls-1 {
        fill: #7e7f84;
        fill-rule: evenodd;
      }
    </style>
  </defs>
  <path id="Plus" class="cls-1" d="M338,2206a7.01,7.01,0,1,1-7,7,7.008,7.008,0,0,1,7-7m0-1a8,8,0,1,0,8,8,8,8,0,0,0-8-8h0Zm-3.5,7.5h7a0.5,0.5,0,0,1,0,1h-7A0.5,0.5,0,0,1,334.5,2212.5Zm4-3v7a0.5,0.5,0,0,1-1,0v-7A0.5,0.5,0,0,1,338.5,2209.5Z" transform="translate(-330 -2205)"/>
</svg>
